<?xml version="1.0" encoding="UTF-8"?>
<svg version="1.1" xmlns="http://www.w3.org/2000/svg" width="500" height="500">
<path d="M0 0 C165 0 330 0 500 0 C500 165 500 330 500 500 C335 500 170 500 0 500 C0 335 0 170 0 0 Z " fill="#FFFDFD" transform="translate(0,0)"/>
<path d="M0 0 C4.35998992 1.45332997 5.35034462 4.82629067 7.375 8.6875 C11.25466494 16.03879615 15.20208975 21.82622227 21.8125 27.0625 C22.75996094 27.82304688 23.70742188 28.58359375 24.68359375 29.3671875 C25.78862403 30.2453437 26.89413147 31.12289965 28 32 C30.79785874 34.22152594 33.58782356 36.45259328 36.375 38.6875 C37.05280518 39.22189697 37.73061035 39.75629395 38.42895508 40.30688477 C44.53535065 45.20517233 49.12991082 49.40484073 50.8125 57.375 C51.04582031 58.43460938 51.27914062 59.49421875 51.51953125 60.5859375 C51.67808594 61.38257813 51.83664062 62.17921875 52 63 C54.97 61.02 57.94 59.04 61 57 C61.33 60.3 61.66 63.6 62 67 C63.258125 66.195625 64.51625 65.39125 65.8125 64.5625 C70.27290391 61.71076635 73.50693014 60.87292366 78.8046875 60.8671875 C79.94550781 60.86589844 81.08632813 60.86460938 82.26171875 60.86328125 C84.05029297 60.86908203 84.05029297 60.86908203 85.875 60.875 C87.05964844 60.87113281 88.24429687 60.86726563 89.46484375 60.86328125 C91.17994141 60.86521484 91.17994141 60.86521484 92.9296875 60.8671875 C93.97366699 60.86831543 95.01764648 60.86944336 96.09326172 60.87060547 C98.84768467 60.99321963 101.30642467 61.44628801 104 62 C117.15191963 62.8763917 129.67583199 62.99206806 142 58 C142.66 58 143.32 58 144 58 C143.69255859 59.01320313 143.69255859 59.01320313 143.37890625 60.046875 C142.97478516 61.38492188 142.97478516 61.38492188 142.5625 62.75 C142.29566406 63.63171875 142.02882813 64.5134375 141.75390625 65.421875 C141.38072266 66.69804687 141.38072266 66.69804687 141 68 C140.82048294 68.60294891 140.64096588 69.20589783 140.45600891 69.82711792 C139.91724722 72.39431693 139.90999636 74.72068437 139.94995117 77.34423828 C139.96293747 78.4128006 139.97592377 79.48136292 139.98930359 80.58230591 C140.01586784 82.30886917 140.01586784 82.30886917 140.04296875 84.0703125 C140.06536768 86.51822097 140.08682191 88.96613823 140.10742188 91.4140625 C140.14442393 95.26521648 140.18735979 99.1159202 140.24682617 102.96679688 C140.30160471 106.68886688 140.33049594 110.41043831 140.35546875 114.1328125 C140.39114204 115.84115768 140.39114204 115.84115768 140.42753601 117.58401489 C140.45411383 125.77218154 138.62902529 131.74194943 135 139 C138.3 139.66 141.6 140.32 145 141 C143.02 143.64 141.04 146.28 139 149 C139.82242187 149.18433594 140.64484375 149.36867187 141.4921875 149.55859375 C156.70256376 153.51048135 163.57419721 163.74955328 172.69140625 175.67578125 C181.62205313 187.35742007 189.96512321 193.56302381 203 200 C200.53128981 203.70306528 198.53087693 204.31110538 194.5 206.125 C180.30972523 212.90747646 171.17549965 225.37343283 161.6875 237.5 C155.526903 245.22578932 149.1007923 249.76819606 139 251 C139.5053125 251.63808594 140.010625 252.27617187 140.53125 252.93359375 C141.1809375 253.75988281 141.830625 254.58617187 142.5 255.4375 C143.1496875 256.26121094 143.799375 257.08492188 144.46875 257.93359375 C146 260 146 260 146 261 C142.7 261.33 139.4 261.66 136 262 C136.433125 262.63421875 136.86625 263.2684375 137.3125 263.921875 C144.84498322 276.54575892 142.72813822 290.53064765 140.4609375 304.51171875 C138.99525212 315.60372759 139.53666189 325.51657149 143.125 336.14453125 C144 339 144 339 144 343 C142.60301364 342.71390693 141.2074567 342.42083095 139.8125 342.125 C138.64654297 341.88136719 138.64654297 341.88136719 137.45703125 341.6328125 C135 341 135 341 132.77612305 339.97485352 C129.41911262 338.79601765 126.6807083 338.75734435 123.125 338.76953125 C121.81015625 338.77146484 120.4953125 338.77339844 119.140625 338.77539062 C118.46064453 338.78159424 117.78066406 338.78779785 117.08007812 338.79418945 C115.00638513 338.81244379 112.93314001 338.81469883 110.859375 338.81445312 C105.41645106 338.83846602 100.33009702 338.86579664 95 340 C91.564699 340.25673572 88.13145324 340.27645025 84.6875 340.3125 C83.77548828 340.34150391 82.86347656 340.37050781 81.92382812 340.40039062 C75.73029298 340.45810816 71.17888666 339.49528531 66 336 C65.34 335.34 64.68 334.68 64 334 C63.01 336.97 62.02 339.94 61 343 C58.33333333 341.66666667 55.66666667 340.33333333 53 339 C52.87109375 339.7321875 52.7421875 340.464375 52.609375 341.21875 C49.42552546 355.75016586 36.85417045 365.29063893 25.1875 373.25 C13.97163771 380.91308061 8.18538314 388.29188298 3 401 C-0.0174847 399.95271681 -0.93871502 399.10258898 -2.60546875 396.3125 C-3.12753906 395.219375 -3.64960938 394.12625 -4.1875 393 C-11.61697854 378.39500772 -25.09549022 368.7134374 -37.78125 358.8515625 C-43.04417028 354.45961847 -45.60593828 351.45054089 -47.3125 344.6875 C-47.63863281 343.43324219 -47.96476563 342.17898438 -48.30078125 340.88671875 C-48.53152344 339.93410156 -48.76226562 338.98148437 -49 338 C-49.48210937 338.433125 -49.96421875 338.86625 -50.4609375 339.3125 C-51.09257812 339.869375 -51.72421875 340.42625 -52.375 341 C-53.00148437 341.556875 -53.62796875 342.11375 -54.2734375 342.6875 C-56 344 -56 344 -58 344 C-58.33 340.7 -58.66 337.4 -59 334 C-59.81984375 334.42152344 -60.6396875 334.84304688 -61.484375 335.27734375 C-62.56203125 335.82519531 -63.6396875 336.37304688 -64.75 336.9375 C-66.35101563 337.75541016 -66.35101563 337.75541016 -67.984375 338.58984375 C-77.26059263 342.92755692 -88.40960709 341.32714433 -98.3125 340 C-109.67277884 338.51526959 -122.02476467 337.1240916 -132.95703125 341.24609375 C-135.27648661 342.10203043 -137.57013095 342.56321726 -140 343 C-141.21970604 339.34088189 -140.63942883 338.56118679 -139.125 335.125 C-134.17320592 323.80166667 -135.7534188 311.49468877 -137 299.5 C-139.63826213 273.51768285 -139.63826213 273.51768285 -131 262 C-134.63 261.67 -138.26 261.34 -142 261 C-138.25 254.25 -138.25 254.25 -136 252 C-137.299375 251.79375 -138.59875 251.5875 -139.9375 251.375 C-155.06269074 247.97954902 -164.49478423 233.1098938 -172.9609375 221.25390625 C-179.51490888 212.39083525 -188.09726266 206.74320302 -198 202 C-198 201.01 -198 200.02 -198 199 C-197.12859375 198.62230469 -196.2571875 198.24460938 -195.359375 197.85546875 C-181.3938737 191.40171436 -172.76801441 182.32608677 -163.71899414 170.14599609 C-156.66057255 160.7241643 -149.30365508 153.90525583 -138 150 C-137.34 150 -136.68 150 -136 150 C-136.433125 149.43410156 -136.86625 148.86820313 -137.3125 148.28515625 C-137.869375 147.55167969 -138.42625 146.81820312 -139 146.0625 C-139.556875 145.33160156 -140.11375 144.60070312 -140.6875 143.84765625 C-142 142 -142 142 -142 141 C-138.7 140.67 -135.4 140.34 -132 140 C-132.804375 138.55625 -133.60875 137.1125 -134.4375 135.625 C-137.03254015 130.96723563 -138.12727899 128.40816581 -138.1328125 123.00390625 C-138.13410156 121.80572266 -138.13539063 120.60753906 -138.13671875 119.37304688 C-138.13285156 118.11556641 -138.12898438 116.85808594 -138.125 115.5625 C-138.13080078 113.68208008 -138.13080078 113.68208008 -138.13671875 111.76367188 C-138.13542969 110.56419922 -138.13414062 109.36472656 -138.1328125 108.12890625 C-138.13168457 107.02619385 -138.13055664 105.92348145 -138.12939453 104.78735352 C-138 102 -138 102 -137 99 C-136.06064225 85.62095433 -135.84466419 72.52010124 -141 60 C-141 59.34 -141 58.68 -141 58 C-140.31035156 58.19335938 -139.62070313 58.38671875 -138.91015625 58.5859375 C-136.9361273 59.13292495 -134.9593394 59.67001507 -132.98046875 60.19921875 C-131.26871522 60.65912632 -129.56021983 61.13265764 -127.86328125 61.64453125 C-117.05828299 64.59520857 -105.16970515 63.24675886 -94.1875 62 C-91.82445204 61.74011911 -89.46124598 61.48195765 -87.09765625 61.22705078 C-85.27294716 61.02954386 -83.44890859 60.82586126 -81.625 60.62109375 C-72.78921814 60.06885738 -66.43852381 63.68653649 -59 68 C-59.04125 66.741875 -59.0825 65.48375 -59.125 64.1875 C-59.2390374 60.70935927 -59.05925681 60.08888522 -57 57 C-54.69 58.98 -52.38 60.96 -50 63 C-49.79375 61.700625 -49.5875 60.40125 -49.375 59.0625 C-46.5397797 46.43288232 -35.94534224 38.54418846 -26.06640625 31.26171875 C-13.48864712 21.98461998 -6.56882747 14.01220297 0 0 Z " fill="#FFC4A1" transform="translate(247,48)"/>
<path d="M0 0 C0.78375 0.04125 1.5675 0.0825 2.375 0.125 C2.66890625 1.86910156 2.66890625 1.86910156 2.96875 3.6484375 C5.82023846 19.35477996 10.7162612 33.63174085 21.00390625 46.05859375 C21.45636719 46.74050781 21.90882813 47.42242187 22.375 48.125 C22.045 49.115 21.715 50.105 21.375 51.125 C22.509375 51.475625 23.64375 51.82625 24.8125 52.1875 C26.75 52.9921875 26.75 52.9921875 28.375 54.125 C29.3125 57.8125 29.3125 57.8125 29.375 61.125 C30.365 60.465 31.355 59.805 32.375 59.125 C32.87725098 59.43203857 33.37950195 59.73907715 33.89697266 60.05541992 C49.28193747 69.39265923 63.87618114 75.05709276 81.375 79.125 C79.09571835 84.26745336 77.52193477 86.14460874 72.515625 88.37890625 C69.45025135 89.44731203 66.6066384 89.8556968 63.375 90.125 C63.375 90.785 63.375 91.445 63.375 92.125 C64.01566406 92.27195312 64.65632813 92.41890625 65.31640625 92.5703125 C71.66702632 94.21712009 75.78864265 96.43233636 80.375 101.125 C79.95341553 105.90295736 77.96994115 109.07253871 74.375 112.125 C67.36714748 116.49841907 59.45204701 118.22413803 51.52954102 120.16894531 C44.34030639 121.99045713 37.96103633 124.6841803 31.375 128.125 C31.22546875 127.465 31.0759375 126.805 30.921875 126.125 C28.39709823 116.61995804 24.12056356 108.23645551 19.61621094 99.52929688 C19.1009082 98.53091797 18.58560547 97.53253906 18.0546875 96.50390625 C17.58788574 95.6126001 17.12108398 94.72129395 16.64013672 93.80297852 C15.29999429 90.96623165 14.31014683 88.11719563 13.375 85.125 C13.95399241 93.0861457 16.59011177 98.98872317 20.48828125 105.890625 C20.85945068 106.55698975 21.23062012 107.22335449 21.61303711 107.90991211 C22.36305291 109.24744298 23.12796889 110.57674138 23.90844727 111.89672852 C26.52928307 116.56024776 26.52928307 116.56024776 25.7421875 119.44140625 C22.28126345 123.703287 18.64791845 125.80388586 13.375 127.125 C9.4133784 127.38930609 5.46870555 127.3584229 1.5 127.3125 C0.44941406 127.31185547 -0.60117188 127.31121094 -1.68359375 127.31054688 C-6.67970426 127.28240858 -11.47044907 127.05993663 -16.42236328 126.34545898 C-21.63024095 125.82420942 -26.89722393 126.02515874 -32.125 126.0625 C-33.32898438 126.06701172 -34.53296875 126.07152344 -35.7734375 126.07617188 C-38.72401073 126.0878805 -41.67447859 126.10428005 -44.625 126.125 C-44.61976318 125.20275635 -44.61452637 124.2805127 -44.60913086 123.33032227 C-44.59196628 119.86937825 -44.57949058 116.40848028 -44.57006836 112.94750977 C-44.56507672 111.45694255 -44.55828106 109.96638014 -44.54956055 108.47583008 C-44.50477502 100.61728779 -44.60030189 92.93147876 -45.625 85.125 C-46.26072206 73.8898352 -45.60111735 64.26611929 -38.625 55.125 C-33.4186703 56.70519592 -28.64126689 58.90384995 -23.75 61.25 C-22.96625 61.62253906 -22.1825 61.99507813 -21.375 62.37890625 C-19.45686501 63.29118997 -17.54072671 64.20766984 -15.625 65.125 C-18.41972187 62.19835402 -21.51066438 60.19675635 -25 58.1875 C-25.61125732 57.83413574 -26.22251465 57.48077148 -26.85229492 57.11669922 C-32.12776727 54.18129068 -37.32141444 52.42532245 -43.17578125 50.9140625 C-43.98402344 50.65367187 -44.79226562 50.39328125 -45.625 50.125 C-45.955 49.465 -46.285 48.805 -46.625 48.125 C-45.86571853 46.17781043 -45.01229425 44.2672908 -44.125 42.375 C-40.81606639 35.10220903 -38.46916738 27.61077972 -36.25 19.94238281 C-34.20978434 13.15549316 -31.61177463 7.20511133 -26.625 2.0625 C-24.625 1.125 -24.625 1.125 -22.25 1 C-17.7435426 2.93133888 -14.64992036 6.61370225 -12.80078125 11.14453125 C-12.32995952 12.78405939 -11.96609015 14.45365829 -11.625 16.125 C-9.15850999 13.65850999 -8.4022754 11.36491809 -7.125 8.125 C-3.99690854 0.19032898 -3.99690854 0.19032898 0 0 Z " fill="#FFC7A5" transform="translate(160.625,255.875)"/>
<path d="M0 0 C2.57000112 1.83913833 4.61922342 3.79990128 6.67578125 6.19921875 C7.43890625 7.02421875 8.20203125 7.84921875 8.98828125 8.69921875 C11.83127204 14.59579224 11.79128116 21.24546462 10.015625 27.5390625 C7.65267771 32.70481306 3.82833136 37.35350731 -0.32421875 41.19921875 C-0.98421875 41.19921875 -1.64421875 41.19921875 -2.32421875 41.19921875 C-2.32421875 41.85921875 -2.32421875 42.51921875 -2.32421875 43.19921875 C3.88152753 45.35223277 8.32498843 45.31614969 14.67578125 43.19921875 C15.79497578 41.35338095 15.79497578 41.35338095 16.67578125 39.19921875 C18.10413742 36.51585402 19.57698096 33.85783887 21.05078125 31.19921875 C21.63085938 30.131875 21.63085938 30.131875 22.22265625 29.04296875 C24.32212251 25.26674755 26.27725222 21.97588928 29.67578125 19.19921875 C30.33578125 19.19921875 30.99578125 19.19921875 31.67578125 19.19921875 C32.17078125 17.71421875 32.17078125 17.71421875 32.67578125 16.19921875 C39.53684162 13.16569354 47.82807275 13.02663991 55.08203125 14.78125 C62.64182262 18.06615934 68.05902916 25.04699433 71.11328125 32.51171875 C75.7911999 45.53856843 76.18456018 63.00139254 70.23046875 75.6328125 C66.36577598 82.01246865 61.21960177 88.44915676 53.83203125 90.78125 C46.70144229 92.1634475 39.97973755 91.85551341 33.67578125 88.19921875 C29.10885026 84.25505108 25.89591058 80.15996468 24.67578125 74.19921875 C24.60651157 71.43951467 24.58160765 68.70725833 24.61328125 65.94921875 C24.61779297 65.20414062 24.62230469 64.4590625 24.62695312 63.69140625 C24.63868879 61.86064235 24.65662275 60.02992002 24.67578125 58.19921875 C27.63690393 60.94451616 29.45992373 64.00028353 31.4921875 67.45703125 C32.57123454 69.35049856 32.57123454 69.35049856 34.67578125 70.19921875 C43.23976871 71.07055468 50.70518275 70.62512223 57.67578125 65.19921875 C62.81064965 59.10378605 63.89323405 53.34994476 63.98828125 45.51171875 C64.01728516 44.73376953 64.04628906 43.95582031 64.07617188 43.15429688 C64.13838023 37.41677271 62.99035909 32.95604664 59.67578125 28.19921875 C56.13384878 26.42825252 52.53443256 26.58157984 48.67578125 27.19921875 C42.52177735 29.99298203 39.60492018 36.32484392 36.69116211 42.08447266 C34.35480306 46.56490798 31.8919852 49.40871072 27.67578125 52.19921875 C24.90543452 52.86242297 22.59020955 53.28737519 19.80078125 53.51171875 C18.76824219 53.6209668 18.76824219 53.6209668 17.71484375 53.73242188 C16.03704273 53.90719281 14.356565 54.05594584 12.67578125 54.19921875 C13.15015625 55.25109375 13.62453125 56.30296875 14.11328125 57.38671875 C17.69865445 65.3368941 18.02879488 75.49373957 16.02734375 83.93359375 C12.72525921 92.11824773 6.39992382 97.67351176 -1.51953125 101.3203125 C-11.1706535 104.34468925 -21.32629213 102.30769477 -30.10546875 97.7578125 C-40.73454572 91.46504852 -46.98986141 83.7071055 -51.32421875 72.19921875 C-51.69546875 71.31363281 -52.06671875 70.42804688 -52.44921875 69.515625 C-53.66240436 64.91743491 -53.53695911 60.55544877 -53.44921875 55.82421875 C-53.44019531 54.89738281 -53.43117187 53.97054687 -53.421875 53.015625 C-53.39844812 50.74321798 -53.36564623 48.47135695 -53.32421875 46.19921875 C-51.46434633 48.98902738 -50.42046599 51.55183744 -49.32080078 54.69580078 C-45.22801017 66.36386768 -40.56421914 75.57123928 -29.0625 81.33203125 C-22.52860937 83.40125196 -13.86751562 83.38031771 -7.3828125 81.21875 C-2.37566744 78.5378239 0.84302908 75.69747526 2.67578125 70.19921875 C3.4551933 62.98755136 3.4551933 62.98755136 0.80078125 56.57421875 C-3.30988118 53.91437835 -6.67149813 54.08308285 -11.44921875 54.13671875 C-12.20332031 54.14123047 -12.95742187 54.14574219 -13.734375 54.15039062 C-15.59769002 54.16218376 -17.4609643 54.18011933 -19.32421875 54.19921875 C-20.33198904 51.45184498 -21.33063321 48.70171923 -22.32421875 45.94921875 C-22.61039063 45.17191406 -22.8965625 44.39460938 -23.19140625 43.59375 C-23.46210938 42.83964844 -23.7328125 42.08554688 -24.01171875 41.30859375 C-24.26308594 40.61733398 -24.51445312 39.92607422 -24.7734375 39.21386719 C-25.32421875 37.19921875 -25.32421875 37.19921875 -25.32421875 33.19921875 C-24.01066406 33.16183594 -22.69710937 33.12445313 -21.34375 33.0859375 C-19.60804511 33.02026218 -17.87236928 32.95381538 -16.13671875 32.88671875 C-15.27240234 32.86416016 -14.40808594 32.84160156 -13.51757812 32.81835938 C-8.70077772 32.61535246 -5.21401168 32.35626512 -1.32421875 29.19921875 C0.217413 26.11595525 -0.0267434 23.59043776 -0.32421875 20.19921875 C-2.62449447 17.77581392 -4.10629041 17.23215502 -7.42578125 16.73046875 C-17.27885082 16.64308011 -23.24983694 18.81629755 -31.32421875 24.19921875 C-33.2734375 24.1875 -33.2734375 24.1875 -35.32421875 23.19921875 C-37.28125 20.6171875 -37.28125 20.6171875 -39.13671875 17.38671875 C-39.76191406 16.32839844 -40.38710937 15.27007812 -41.03125 14.1796875 C-42.32421875 11.19921875 -42.32421875 11.19921875 -42.1640625 8.93359375 C-39.03448447 2.47065121 -28.49886739 0.34518837 -22.32421875 -1.80078125 C-14.96640508 -4.05604981 -6.68741716 -3.94599149 0 0 Z " fill="#FF9351" transform="translate(238.32421875,211.80078125)"/>
<path d="M0 0 C4.45082436 4.24851416 6.75025373 8.27078587 7.17236328 14.57373047 C7.23280832 17.59344284 7.22345318 20.60493265 7.1875 23.625 C7.1865332 25.17960937 7.1865332 25.17960937 7.18554688 26.765625 C7.14080458 34.46129989 7.14080458 34.46129989 6.50927734 36.87744141 C5.76708938 39.97072144 5.77472868 42.99517188 5.68359375 46.171875 C5.6524221 47.1955014 5.6524221 47.1955014 5.62062073 48.23980713 C5.55547948 50.40977356 5.49640596 52.57985624 5.4375 54.75 C5.39428103 56.22527221 5.35066568 57.70053287 5.30664062 59.17578125 C5.19983482 62.78373166 5.09846847 66.39181133 5 70 C3.8236499 69.98428955 3.8236499 69.98428955 2.62353516 69.96826172 C-15.81878566 69.63377933 -15.81878566 69.63377933 -34.1875 71 C-34.90083496 71.09015381 -35.61416992 71.18030762 -36.34912109 71.27319336 C-38.2327602 71.51536263 -40.11638092 71.75767495 -42 72 C-49.91670993 72.82618241 -55.23957231 71.29027142 -62 67 C-62.66 66.34 -63.32 65.68 -64 65 C-63.87502852 58.25154014 -61.65052294 53.97090675 -58.0625 48.375 C-53.73836122 41.50041444 -50.92632948 35.89494225 -50.375 27.625 C-50.30023438 26.56539063 -50.22546875 25.50578125 -50.1484375 24.4140625 C-50.07496094 23.21910156 -50.07496094 23.21910156 -50 22 C-46.87709365 22.48578543 -44.00419641 22.9986012 -41 24 C-41.33 23.443125 -41.66 22.88625 -42 22.3125 C-43.14011312 19.67598842 -43.2306312 17.84445144 -43 15 C-41.28993667 13.28993667 -38.77852096 13.66442105 -36.4375 13.4375 C-26.36560036 11.98279344 -17.89014352 6.87202082 -9.21875 1.78125 C-5.65535271 -0.19072714 -3.9840008 -0.86608713 0 0 Z " fill="#FFFDFC" transform="translate(376,311)"/>
<path d="M0 0 C5.9853185 1.74650461 11.12065907 4.64351529 16.546875 7.63476562 C23.38715511 11.34506196 29.62683947 14.24016133 37.5 14.6875 C38.5415625 14.75324219 39.583125 14.81898438 40.65625 14.88671875 C41.81640625 14.94279297 41.81640625 14.94279297 43 15 C42.34 17.64 41.68 20.28 41 23 C41.66 22.67 42.32 22.34 43 22 C45.3329866 21.95977609 47.66706666 21.95679753 50 22 C50.08636719 22.79921875 50.17273438 23.5984375 50.26171875 24.421875 C51.51748849 34.23761645 54.36622364 42.32342736 59.17578125 50.9453125 C59.54880371 51.61836426 59.92182617 52.29141602 60.30615234 52.98486328 C61.04890781 54.30784637 61.80795454 55.62184003 62.58447266 56.92529297 C63.62109375 58.75 63.62109375 58.75 65 62 C63.91946718 65.91113106 61.29118298 67.7560116 58 70 C52.20125351 72.63833643 46.36257228 72.25967654 40.125 72.1875 C39.07441406 72.18685547 38.02382812 72.18621094 36.94140625 72.18554688 C31.94529574 72.15740858 27.15455093 71.93493663 22.20263672 71.22045898 C16.99475905 70.69920942 11.72777607 70.90015874 6.5 70.9375 C5.29601562 70.94201172 4.09203125 70.94652344 2.8515625 70.95117188 C-0.09901073 70.9628805 -3.04947859 70.97928005 -6 71 C-5.99476318 70.07775635 -5.98952637 69.1555127 -5.98413086 68.20532227 C-5.96696628 64.74437825 -5.95449058 61.28348028 -5.94506836 57.82250977 C-5.94007672 56.33194255 -5.93328106 54.84138014 -5.92456055 53.35083008 C-5.87977502 45.49228779 -5.97530189 37.80647876 -7 30 C-7.63572206 18.7648352 -6.97611735 9.14111929 0 0 Z " fill="#FFFCFC" transform="translate(122,311)"/>
<path d="M0 0 C4.04009469 1.56330004 6.41564639 4.44025468 9.1875 7.625 C16.69434962 16.00502921 25.03508229 22.92719265 33.984375 29.703125 C34.97953125 30.46109375 35.9746875 31.2190625 37 32 C37.89203125 32.65484375 38.7840625 33.3096875 39.703125 33.984375 C43.26915328 37.11374675 44.78842117 39.62231497 45.51171875 44.33203125 C45.56972656 45.48058594 45.62773437 46.62914062 45.6875 47.8125 C45.75324219 48.97394531 45.81898438 50.13539062 45.88671875 51.33203125 C45.94279297 52.65267578 45.94279297 52.65267578 46 54 C41.746453 55.44316773 37.50723276 56.85329268 33.19140625 58.1015625 C23.14015845 61.02176003 14.40228824 64.24760353 7 72 C6.01 71.67 5.02 71.34 4 71 C3.67 69.35 3.34 67.7 3 66 C0.9754262 67.93254772 -0.42105792 69.63158688 -2 72 C-5.28468078 71.38412235 -7.32106017 70.21861487 -10 68.25 C-18.86732362 62.21328783 -28.6359944 59.37171914 -38.9453125 56.89453125 C-42 56 -42 56 -44 54 C-45.2017654 48.01647334 -43.75583247 43.24296235 -40.58203125 38.171875 C-35.25313562 30.85615655 -28.22094819 25.82001135 -21.01123047 20.50390625 C-12.93363201 14.52750468 -5.45285483 8.54280589 0 0 Z " fill="#FFFCFC" transform="translate(247,62)"/>
<path d="M0 0 C1.5140896 4.50032172 3.0094979 9.00421664 4.4296875 13.53515625 C4.66816406 14.28216797 4.90664062 15.02917969 5.15234375 15.79882812 C5.63453086 17.30924666 6.10848876 18.82231677 6.57421875 20.33789062 C8.90360345 27.54403526 12.27546769 33.91152684 18 39 C17.67 39.99 17.34 40.98 17 42 C15.35 42.33 13.7 42.66 12 43 C14.25740623 45.33524782 16.2805761 47.18705073 19 49 C17.49230769 52.76923077 17.49230769 52.76923077 15 53.9375 C12.21130396 55.41899477 12.08064323 57.07274037 11 60 C10.63261719 60.83015625 10.26523438 61.6603125 9.88671875 62.515625 C6.8798228 69.37173955 4.618951 76.27750811 2.61206055 83.47558594 C1.0903475 88.9096525 1.0903475 88.9096525 0 90 C-7.39705812 90.5190918 -13.36252908 89.29164416 -19.3125 84.6875 C-24.44591889 79.98871841 -28.51635694 74.20187328 -32.71484375 68.68164062 C-34.44936552 66.41200044 -36.22658585 64.17681109 -38 61.9375 C-39.73456338 59.73061419 -41.09181441 57.82054456 -42.375 55.3125 C-44.66263554 52.05701866 -47.71984396 50.4946353 -51.13671875 48.52734375 C-51.75160156 48.02332031 -52.36648437 47.51929688 -53 47 C-53 43 -53 43 -50.7265625 40.58984375 C-49.70059411 39.69659021 -48.66613523 38.81302868 -47.625 37.9375 C-39.95919538 31.2043607 -33.19298902 23.88171068 -26.9375 15.8125 C-19.6900635 6.63631024 -12.32447797 -0.75455988 0 0 Z " fill="#FFFDFC" transform="translate(116,204)"/>
<path d="M0 0 C2.6875 1.9375 2.6875 1.9375 4 4 C3.5867541 7.65887696 2.47193321 10.27790745 0.56640625 13.3984375 C-0.1596582 14.61273438 -0.1596582 14.61273438 -0.90039062 15.8515625 C-1.92060216 17.52642058 -2.9414301 19.20090336 -3.96289062 20.875 C-7.8743914 27.42014073 -10.05647866 33.26246196 -10.625 40.9375 C-10.69976562 41.89527344 -10.77453125 42.85304687 -10.8515625 43.83984375 C-10.90054688 44.55269531 -10.94953125 45.26554687 -11 46 C-13.97 45.01 -16.94 44.02 -20 43 C-19.505 44.27875 -19.01 45.5575 -18.5 46.875 C-17 50.75 -17 50.75 -17 53 C-17.78761719 53.08636719 -18.57523438 53.17273438 -19.38671875 53.26171875 C-31.73573889 54.85466928 -41.84196564 58.91113214 -52.34375 65.546875 C-54.96375404 66.98017133 -57.0598242 67.59519319 -60 68 C-67.618703 59.96947522 -68.33366269 52.10770053 -68.30078125 41.35546875 C-68.1566493 37.96436437 -67.61422433 34.74424985 -66.98828125 31.41015625 C-65.74436986 24.34052822 -65.77784785 17.40936635 -65.875 10.25 C-65.88402344 8.96867187 -65.89304687 7.68734375 -65.90234375 6.3671875 C-65.92564673 3.24458779 -65.95835946 0.12239975 -66 -3 C-65.09233887 -2.99476318 -64.18467773 -2.98952637 -63.24951172 -2.98413086 C-59.86132158 -2.96702316 -56.47317779 -2.95451787 -53.08496094 -2.94506836 C-51.62238843 -2.94005955 -50.15982089 -2.93325062 -48.69726562 -2.92456055 C-46.58722709 -2.91234302 -44.47725513 -2.90673705 -42.3671875 -2.90234375 C-41.09987793 -2.89710693 -39.83256836 -2.89187012 -38.52685547 -2.88647461 C-6.30995751 -3.92349922 -6.30995751 -3.92349922 0 0 Z " fill="#FFFCFC" transform="translate(182,119)"/>
<path d="M0 0 C11.41142275 1.89523044 23.15951871 1.16215511 34.6875 1 C34.67964478 2.29248657 34.67964478 2.29248657 34.67163086 3.61108398 C34.65445396 6.8483861 34.64198469 10.08566476 34.63256836 13.32299805 C34.62758043 14.71656057 34.62078769 16.11011798 34.61206055 17.50366211 C34.57029567 24.35064522 34.54510767 31.11848451 35.44067383 37.91821289 C36.5924422 47.63248485 37.79791584 59.19852701 31.9765625 67.5390625 C30.92358773 68.7324339 29.81286464 69.87463536 28.6875 71 C24.07367786 70.70903824 20.33191801 68.3874968 16.375 66.1875 C15.02608495 65.4595552 13.67712711 64.7316897 12.328125 64.00390625 C10.33647259 62.9169554 8.3723053 61.8125135 6.421875 60.65234375 C0.32275603 57.16523877 -6.42016428 56.73569876 -13.3125 56 C-12.9825 53.36 -12.6525 50.72 -12.3125 48 C-13.42625 48.495 -13.42625 48.495 -14.5625 49 C-17.3125 50 -17.3125 50 -21.3125 50 C-21.3640625 49.030625 -21.415625 48.06125 -21.46875 47.0625 C-22.31800036 35.91275515 -25.80279672 27.63042857 -31.3125 18 C-31.85261719 17.03191406 -32.39273437 16.06382812 -32.94921875 15.06640625 C-33.78487972 13.56987873 -34.63244563 12.07982948 -35.5 10.6015625 C-36.3125 9 -36.3125 9 -36.3125 7 C-34.51953125 5.5625 -34.51953125 5.5625 -32.125 4 C-31.34769531 3.484375 -30.57039063 2.96875 -29.76953125 2.4375 C-20.76595546 -2.83009283 -9.98708963 -1.76094779 0 0 Z " fill="#FFFDFC" transform="translate(346.3125,115)"/>
<path d="M0 0 C7.59119373 0.20139902 13.51669696 3.39402968 18.9375 8.5625 C23.61059552 13.52170341 27.62897182 18.91345016 31.65820312 24.40039062 C39.99040652 35.78795487 39.99040652 35.78795487 51.0625 44.3125 C49.47942124 48.50765871 46.34767552 50.94623948 43.0625 53.8125 C35.87206711 60.26486518 29.81600907 67.29585977 24.01953125 75.04296875 C18.96044535 81.71773078 13.18885169 87.6037161 5.0625 90.3125 C3.66810336 90.37915376 2.27080125 90.39788199 0.875 90.375 C-0.383125 90.354375 -1.64125 90.33375 -2.9375 90.3125 C-3.71033361 88.02149127 -4.48082411 85.72973699 -5.25 83.4375 C-5.48146729 82.75147705 -5.71293457 82.0654541 -5.95141602 81.35864258 C-7.21167448 77.59552404 -8.35591623 73.83691177 -9.375 70 C-11.51218927 62.72627061 -15.44848571 56.50513123 -20.9375 51.3125 C-20.6075 50.3225 -20.2775 49.3325 -19.9375 48.3125 C-17.4625 47.8175 -17.4625 47.8175 -14.9375 47.3125 C-16.87004772 45.2879262 -18.56908688 43.89144208 -20.9375 42.3125 C-19.95322592 39.44170061 -18.99195637 37.37818449 -17.04296875 35.02734375 C-10.40959472 26.47410637 -7.76341784 14.92678203 -4.91796875 4.63671875 C-3.66539221 0.38993534 -3.66539221 0.38993534 0 0 Z " fill="#FFFDFC" transform="translate(383.9375,202.6875)"/>
<path d="M0 0 C0.99 0.33 1.98 0.66 3 1 C3.495 3.475 3.495 3.475 4 6 C4.78375 5.195625 5.5675 4.39125 6.375 3.5625 C9 1 9 1 11 0 C11.68964844 0.53109375 12.37929687 1.0621875 13.08984375 1.609375 C22.5931349 8.75313844 31.09074952 12.21806727 42.546875 15.0703125 C45.49220018 15.86328466 48.20409317 16.79413179 51 18 C51.61118326 25.57867239 50.37808794 30.71709476 46 37 C40.19376941 43.43116735 32.93930652 48.29783403 25.98657227 53.39770508 C18.89782879 58.67400968 11.93282374 64.6007644 7 72 C2.9777011 70.43009581 0.85240481 67.78872075 -1.9375 64.5625 C-8.52478655 57.14267391 -15.9360693 50.83631114 -23.8359375 44.8515625 C-29.53471644 40.52185958 -33.50990842 36.27273216 -37 30 C-37.37898437 29.34 -37.75796875 28.68 -38.1484375 28 C-39.56774631 24.66657748 -39.11958937 21.58768113 -39 18 C-34.97000739 16.20889217 -30.8475747 15.12122428 -26.59912109 13.99560547 C-11.3837283 10.16308706 -11.3837283 10.16308706 0 0 Z " fill="#FFFDFC" transform="translate(243,363)"/>
<path d="M0 0 C5.2576204 1.20722185 8.5890223 2.84860826 11.578125 7.40625 C15.11403012 14.04946568 17.08017719 20.67065238 18.85546875 27.953125 C20.7730716 35.23241061 24.00011875 42.11544107 27 49 C26.434021 49.13970215 25.86804199 49.2794043 25.28491211 49.42333984 C17.53098609 51.52460347 10.67898576 54.94834971 3.5625 58.625 C1.25211864 59.8062859 -1.05904219 60.98604891 -3.37109375 62.1640625 C-4.38099365 62.68436035 -5.39089355 63.2046582 -6.43139648 63.74072266 C-10.53352951 65.75182446 -13.59620313 66.13591276 -18.125 66.125 C-19.20007813 66.12757813 -20.27515625 66.13015625 -21.3828125 66.1328125 C-24 66 -24 66 -25 65 C-25.17926852 62.75473532 -25.26811465 60.50197261 -25.3125 58.25 C-25.34988281 57.01765625 -25.38726562 55.7853125 -25.42578125 54.515625 C-24.92311113 50.36513777 -23.98081592 48.87908159 -21 46 C-13.73243849 41.41379257 -5.33223858 39.62935667 3 38 C2.54109375 37.47792969 2.0821875 36.95585937 1.609375 36.41796875 C-4.03460847 29.64756 -9.053027 21.22529931 -8.671875 12.05859375 C-7.12236475 7.3109664 -3.32249152 3.61914254 0 0 Z " fill="#FFFCFA" transform="translate(357,256)"/>
<path d="M0 0 C0.34998047 1.15048828 0.34998047 1.15048828 0.70703125 2.32421875 C3.67688204 11.35970119 7.71113873 19.53639741 12.25317383 27.8894043 C12.72134521 28.753479 13.1895166 29.61755371 13.671875 30.5078125 C14.0956543 31.27754395 14.51943359 32.04727539 14.95605469 32.84033203 C16.88046925 36.82147591 17.13673322 40.29340748 17.125 44.6875 C17.12886719 46.14736328 17.12886719 46.14736328 17.1328125 47.63671875 C17 50 17 50 16 51 C13.75473532 51.17926852 11.50197261 51.26811465 9.25 51.3125 C7.40148437 51.36857422 7.40148437 51.36857422 5.515625 51.42578125 C1.35232119 50.9215589 -0.1317196 50.01524176 -3 47 C-7.19383867 39.6330453 -9.20658647 31.22345718 -11 23 C-11.43828125 23.37511719 -11.8765625 23.75023437 -12.328125 24.13671875 C-18.83968364 29.39096424 -26.74244736 33.96737251 -35.25 34.6875 C-40.25042895 33.77075469 -43.37636249 31.49604464 -47 28 C-49 25 -49 25 -49.0625 22.6875 C-46.98601337 17.43521029 -42.18881436 14.38715192 -37.25 11.9375 C-31.71352812 9.63143082 -25.84465774 8.37637354 -20.03808594 6.93652344 C-14.56297084 5.53691875 -9.72673831 3.76998205 -4.8125 0.91796875 C-3 0 -3 0 0 0 Z " fill="#FFFCF9" transform="translate(305,114)"/>
<path d="M0 0 C1.16789062 -0.00257813 2.33578125 -0.00515625 3.5390625 -0.0078125 C6.375 0.125 6.375 0.125 7.375 1.125 C9.60636711 13.84609289 2.65548187 24.01443244 -3.875 34.3125 C-7.33180987 39.83772888 -8.95767609 45.86763146 -10.625 52.125 C-11.8109375 51.60550781 -12.996875 51.08601563 -14.21875 50.55078125 C-22.15537174 47.11875089 -30.00177084 43.85235331 -38.3125 41.4375 C-46.72573383 38.96048122 -52.71619159 35.5877592 -58.625 29.125 C-57.46604475 24.34430957 -54.57572643 21.49922829 -50.890625 18.45703125 C-47.67787403 16.56815525 -45.63470228 16.66118484 -42.05078125 17.41015625 C-41.25027344 17.64605469 -40.44976562 17.88195312 -39.625 18.125 C-38.71105469 18.39183594 -37.79710937 18.65867187 -36.85546875 18.93359375 C-31.00195892 20.86341026 -26.4305879 23.28052968 -21.625 27.125 C-21.47804688 26.38636719 -21.33109375 25.64773438 -21.1796875 24.88671875 C-19.31636638 16.45893876 -16.52062537 6.88931183 -9.625 1.125 C-6.23107349 -0.00630884 -3.57165128 -0.0079194 0 0 Z " fill="#FFFCFA" transform="translate(315.625,331.875)"/>
<path d="M0 0 C0.93070313 -0.02578125 1.86140625 -0.0515625 2.8203125 -0.078125 C6.74230333 0.34316302 9.42850704 1.31708854 12.875 3.25 C15.01953125 6.21875 15.01953125 6.21875 16.6875 9.75 C16.97955322 10.36568848 17.27160645 10.98137695 17.57250977 11.61572266 C20.00716361 16.98985177 21.28750887 22.37508872 21.875 28.25 C22.63683594 27.65251953 22.63683594 27.65251953 23.4140625 27.04296875 C27.41175125 23.96609595 31.22095718 21.27349688 35.875 19.25 C36.803125 18.8375 37.73125 18.425 38.6875 18 C43.04221849 16.97536036 46.58419715 16.88984354 50.875 18.25 C54.13290891 20.31334231 57.01918656 22.66423984 59.875 25.25 C59.08231835 30.03844424 57.59603878 33.09046932 53.875 36.25 C46.86714748 40.62341907 38.95204701 42.34913803 31.02954102 44.29394531 C23.84030639 46.11545713 17.46103633 48.8091803 10.875 52.25 C10.65070313 51.26 10.65070313 51.26 10.421875 50.25 C7.88062236 40.68293124 3.5601167 32.24336727 -0.97167969 23.47851562 C-1.49020508 22.47369141 -2.00873047 21.46886719 -2.54296875 20.43359375 C-3.25102661 19.08092407 -3.25102661 19.08092407 -3.97338867 17.70092773 C-5.8381152 13.73230581 -6.26289055 10.42594994 -6.25 6.0625 C-6.25257813 5.18207031 -6.25515625 4.30164063 -6.2578125 3.39453125 C-6.00268108 -0.72509081 -3.59572361 0.05878567 0 0 Z " fill="#FFFCF9" transform="translate(181.125,331.75)"/>
<path d="M0 0 C4.40769248 1.88901106 7.4965048 5.86800959 9.625 10.125 C10.66991863 17.96188974 7.40335788 26.13639723 2.95703125 32.51953125 C1.58517153 34.11949116 0.11528031 35.63471969 -1.375 37.125 C-0.26705078 37.36283203 -0.26705078 37.36283203 0.86328125 37.60546875 C9.77206758 39.65437641 20.16563662 42.24263407 26.625 49.125 C27.02568215 52.07629314 27.1504903 54.39350705 27 57.3125 C26.98582031 58.04919922 26.97164062 58.78589844 26.95703125 59.54492188 C26.80808006 64.94191994 26.80808006 64.94191994 25.625 66.125 C13.43144019 68.00421762 4.4628982 62.21149627 -5.4375 55.9375 C-10.27578914 52.91356929 -15.29628028 51.44465939 -20.78515625 49.984375 C-22.06712891 49.55898438 -22.06712891 49.55898438 -23.375 49.125 C-23.705 48.465 -24.035 47.805 -24.375 47.125 C-23.61571853 45.17781043 -22.76229425 43.2672908 -21.875 41.375 C-18.56606639 34.10220903 -16.21916738 26.61077972 -14 18.94238281 C-11.95978434 12.15549316 -9.36177463 6.20511133 -4.375 1.0625 C-2.375 0.125 -2.375 0.125 0 0 Z " fill="#FFFCFA" transform="translate(138.375,256.875)"/>
<path d="M0 0 C0.77601563 -0.00257813 1.55203125 -0.00515625 2.3515625 -0.0078125 C4.375 0.125 4.375 0.125 6.375 1.125 C6.98625623 12.56907504 6.98625623 12.56907504 5 17.625 C-2.4223747 24.69392829 -11.80728175 26.38497213 -21.625 28.125 C-21.24988281 28.56328125 -20.87476563 29.0015625 -20.48828125 29.453125 C-15.23403576 35.96468364 -10.65762749 43.86744736 -9.9375 52.375 C-10.85424531 57.37542895 -13.12895536 60.50136249 -16.625 64.125 C-19.625 66.125 -19.625 66.125 -21.9375 66.1875 C-26.71158295 64.30007186 -29.49532654 60.48668849 -31.68139648 55.91650391 C-34.42776444 48.96817157 -36.44873751 41.93896605 -38.3359375 34.71679688 C-39.46537281 30.57249795 -40.60459501 26.87145727 -42.8125 23.16796875 C-44.625 20.125 -44.625 20.125 -44.625 17.125 C-43.61824219 16.80789062 -42.61148438 16.49078125 -41.57421875 16.1640625 C-32.16395562 13.08086339 -23.544954 9.25260015 -14.87182617 4.46533203 C-13.7345105 3.83860596 -13.7345105 3.83860596 -12.57421875 3.19921875 C-11.90737061 2.82369873 -11.24052246 2.44817871 -10.5534668 2.0612793 C-7.04933035 0.3600053 -3.86361848 -0.0129218 0 0 Z " fill="#FFFBF9" transform="translate(158.625,174.875)"/>
<path d="M0 0 C10.28879611 0.16053441 18.01342975 5.00650262 26.4765625 10.4140625 C32.50249282 14.04756391 38.97718738 16.11250446 45.625 18.3125 C45.18929687 19.30765625 44.75359375 20.3028125 44.3046875 21.328125 C40.85069033 29.38256906 37.92471513 37.36900586 35.5625 45.8125 C31.15325694 61.32421708 31.15325694 61.32421708 24.6953125 65.5859375 C22.11728467 66.49067934 21.11728147 66.42127089 18.625 65.3125 C14.90204735 61.78628875 12.01345374 58.02817067 10.875 53 C12.80250399 43.52310537 16.72915539 36.06923536 23.625 29.3125 C23.0165625 29.2609375 22.408125 29.209375 21.78125 29.15625 C15.28862156 28.3160275 9.88418134 26.3115611 4.0625 23.4375 C3.00869141 22.92799805 3.00869141 22.92799805 1.93359375 22.40820312 C-0.70705921 21.05435273 -2.95205853 19.83890296 -4.828125 17.50390625 C-5.61746577 14.34090503 -5.59960416 11.38004676 -5.5625 8.125 C-5.55605469 6.87332031 -5.54960937 5.62164062 -5.54296875 4.33203125 C-5.29004927 -0.21463749 -4.19289161 0.12565448 0 0 Z " fill="#FFFCFA" transform="translate(337.375,173.6875)"/>
<path d="M0 0 C0.57105469 0.23074219 1.14210937 0.46148437 1.73046875 0.69921875 C4.48411001 1.80680418 7.24130714 2.9050549 10 4 C11.0003125 4.39703125 12.000625 4.7940625 13.03125 5.203125 C17.63970766 7.0054426 22.24049059 8.77707317 26.953125 10.2890625 C27.94856323 10.60919312 27.94856323 10.60919312 28.96411133 10.93579102 C30.83639748 11.53039185 32.71301719 12.11129622 34.58984375 12.69140625 C39.70789991 14.65537969 44.65102924 17.5793586 48 22 C48 26.37875307 45.93422769 28.90275966 43 32 C39.8650156 34.68712949 38.23520464 34.99253319 34.0625 35.125 C25.99661497 33.91647514 16.23975556 29.274769 11 23 C11 22.34 11 21.68 11 21 C10.34 21 9.68 21 9 21 C9.04640625 21.59425781 9.0928125 22.18851563 9.140625 22.80078125 C9.45367004 29.98963696 7.96521975 35.48407126 5 42 C4.65710938 42.88945312 4.31421875 43.77890625 3.9609375 44.6953125 C2.56184773 47.57472952 1.61343698 49.12031829 -1 51 C-6.44371706 51.8211801 -11.5458427 51.66682892 -17 51 C-18.62524363 49.37475637 -18.40458685 47.69196225 -18.5625 45.4375 C-18.50194261 37.64578261 -14.7671159 31.66992746 -11.10351562 25.01660156 C-6.68913097 16.9496066 -2.59376772 8.84932517 0 0 Z " fill="#FFFCFA" transform="translate(192,114)"/>
<path d="M0 0 C1.11375 0.185625 1.11375 0.185625 2.25 0.375 C2.54390625 2.11910156 2.54390625 2.11910156 2.84375 3.8984375 C5.7007224 19.63498615 10.68177421 33.8207494 20.78125 46.40625 C22.25 48.375 22.25 48.375 22.25 50.375 C12.27595414 51.89646462 5.65911778 47.98075309 -2.78857422 43.39697266 C-7.29016149 41.05148544 -12.03134372 39.2338646 -16.75 37.375 C-15.0074485 30.13926236 -12.72399247 23.09756922 -10.3125 16.0625 C-10.02431396 15.20301758 -9.73612793 14.34353516 -9.43920898 13.45800781 C-4.99411898 0.68101622 -4.99411898 0.68101622 0 0 Z " fill="#FFFAF8" transform="translate(160.75,255.625)"/>
<path d="M0 0 C0.33209473 0.80050781 0.33209473 0.80050781 0.67089844 1.6171875 C1.69431931 4.07936134 2.72213267 6.53967926 3.75 9 C4.09804688 9.83917969 4.44609375 10.67835938 4.8046875 11.54296875 C6.47852486 15.54158021 8.19957925 19.42934021 10.25 23.25 C11.96318805 26.60548556 12.44076669 29.18466621 12.25 33 C12.21390625 33.94875 12.1778125 34.8975 12.140625 35.875 C12.09421875 36.57625 12.0478125 37.2775 12 38 C7.48230616 35.787252 3.04174323 33.48002242 -1.36889648 31.05957031 C-12.81196705 24.82129293 -24.41822218 21.19213796 -37 18 C-35.17382732 12.87988968 -32.84172294 10.42086147 -28 8 C-23.33672586 6.33735585 -18.6269765 4.92051721 -13.87060547 3.55224609 C-11.44977921 2.83756207 -9.06979755 2.02071737 -6.6875 1.1875 C-3 0 -3 0 0 0 Z " fill="#FFFAF8" transform="translate(293,144)"/>
<path d="M0 0 C3.38224172 3.28276403 6.43783439 6.66341705 9.375 10.3515625 C12.20161378 13.21894475 14.78496825 14.82690888 18.796875 15.3984375 C29.58105686 15.31284876 36.15341662 13.12401923 44.640625 6.42578125 C47.41420742 4.74969254 48.81583947 4.46154033 52 5 C55.87382517 8.03435064 58.57935832 12.31188245 60 17 C55.24428224 24.13357664 47.3318418 28.2347958 39 30 C20.08379147 31.77500947 20.08379147 31.77500947 12.78515625 26.609375 C6.51216144 20.95407115 0.6507912 14.41189367 -0.23828125 5.65234375 C-0.24825882 3.76658213 -0.13678695 1.8808205 0 0 Z " fill="#FF9451" transform="translate(240,193)"/>
<path d="M0 0 C0.74095069 11.29949799 -3.44758194 19.61480919 -9.31640625 29.078125 C-10.59042076 31.28917571 -11.6231555 33.34682951 -12.60522461 35.68261719 C-13.06550049 36.77735352 -13.52577637 37.87208984 -14 39 C-18.16848148 37.6851484 -22.33053164 36.35198857 -26.48779297 35.00219727 C-27.90026103 34.54638024 -29.31431341 34.09544063 -30.72998047 33.6496582 C-32.77496172 33.00474692 -34.81343625 32.34199628 -36.8515625 31.67578125 C-38.07697754 31.28302002 -39.30239258 30.89025879 -40.56494141 30.4855957 C-44.55355455 28.76059848 -46.91599679 27.0441925 -50 24 C-50 23.01 -50 22.02 -50 21 C-49.28569824 20.79431396 -48.57139648 20.58862793 -47.83544922 20.37670898 C-24.19734622 13.78532377 -24.19734622 13.78532377 -3.453125 1.06640625 C-2 0 -2 0 0 0 Z " fill="#FFFAF8" transform="translate(306,314)"/>
<path d="M0 0 C5.64100392 2.97719651 8.59035646 6.32039842 10.5625 12.36328125 C11.05287377 14.00972437 11.53179043 15.65961731 12 17.3125 C13.62424168 22.96611046 15.36797512 28.13882033 18.23046875 33.29760742 C19 35 19 35 19 38 C18.175 38.268125 17.35 38.53625 16.5 38.8125 C8.83772264 41.41220125 1.74133505 44.4249105 -5.31640625 48.40820312 C-10.11195489 50.98395657 -13.56257331 51.35566316 -19 51 C-19 46.30696624 -18.01552734 45.13306804 -15.4375 41.3125 C-7.23599694 28.55216325 -2.97677644 14.77294644 0 0 Z " fill="#FFFAF8" transform="translate(335,255)"/>
<path d="M0 0 C11.2201697 -0.72388192 19.82730217 4.25680289 29.625 9.25 C30.53378906 9.70890625 31.44257813 10.1678125 32.37890625 10.640625 C34.58784413 11.75671993 36.79480299 12.87653719 39 14 C39 17.54400679 37.71371941 19.56315746 36.109375 22.65039062 C33.71160556 27.728765 32.26948959 33.20963024 30.64453125 38.57421875 C27.86870353 47.32875232 27.86870353 47.32875232 24 50 C23.01 50 22.02 50 21 50 C20.82984375 49.35675781 20.6596875 48.71351563 20.484375 48.05078125 C13.95132834 23.67245592 13.95132834 23.67245592 0 3 C0 2.01 0 1.02 0 0 Z " fill="#FFFBF9" transform="translate(314,191)"/>
<path d="M0 0 C4.71061338 2.26471797 9.16974645 4.7022371 13.625 7.4375 C24.90836536 14.05481201 37.37429147 17.06493269 50 20 C48.5615212 23.95581669 47.1942615 26.23448234 43.48046875 28.1484375 C38.55228572 30.32797237 33.44081015 31.98684015 28.3125 33.625 C26.4748312 34.22003023 24.63757724 34.81634343 22.80078125 35.4140625 C21.99809814 35.6713916 21.19541504 35.9287207 20.3684082 36.19384766 C17.87308487 37.04319903 15.43894062 38.00125504 13 39 C12.55269531 37.87722656 12.10539063 36.75445312 11.64453125 35.59765625 C7.37600445 24.90114465 7.37600445 24.90114465 1.9453125 14.76171875 C0.0898603 11.30383055 -0.11950131 8.12608937 -0.0625 4.25 C-0.05347656 3.45078125 -0.04445312 2.6515625 -0.03515625 1.828125 C-0.02355469 1.22484375 -0.01195312 0.6215625 0 0 Z " fill="#FFFBF9" transform="translate(192,315)"/>
<path d="M0 0 C0.969375 0.37511719 1.93875 0.75023437 2.9375 1.13671875 C4.29132564 1.65453832 5.64552186 2.1713896 7 2.6875 C7.71317383 2.96078125 8.42634766 3.2340625 9.16113281 3.515625 C12.90313995 4.92522909 16.63312023 6.2211089 20.484375 7.30078125 C21.55751953 7.60592651 21.55751953 7.60592651 22.65234375 7.91723633 C24.01952121 8.29706089 25.39196607 8.65855134 26.76953125 8.9987793 C30.5904505 10.06826401 31.97716808 10.9706239 34.453125 14.15625 C34.96359375 15.0946875 35.4740625 16.033125 36 17 C33.27371194 18.81752537 31.75449275 19.45924385 28.67578125 20.2265625 C14.45543523 23.92981942 0.81491525 28.33092346 -10.6171875 37.96875 C-12 39 -12 39 -14 39 C-15.50815107 29.11323185 -11.70588985 22.32602137 -7.07226562 13.96728516 C-5.28718011 10.69218974 -3.65049613 7.34431123 -2 4 C-1.33397438 2.66634634 -0.66747784 1.33292744 0 0 Z " fill="#FFFAF9" transform="translate(205,144)"/>
<path d="M0 0 C0 4.74281102 -1.11837205 6.1541963 -3.6875 10.0625 C-11.68472326 22.69698985 -15.32423309 35.61482624 -19 50 C-25.23304217 46.46232742 -27.37888642 43.77689279 -29.48046875 36.92578125 C-29.69818436 36.2419487 -29.91589996 35.55811615 -30.14021301 34.8535614 C-30.83135495 32.67584926 -31.50956078 30.49435401 -32.1875 28.3125 C-32.65475069 26.83241423 -33.12284017 25.35259299 -33.59179688 23.87304688 C-34.73760851 20.25169166 -35.87183801 16.62689049 -37 13 C-36.2994751 12.68909424 -35.5989502 12.37818848 -34.87719727 12.05786133 C-30.44590473 10.07095244 -26.04429675 8.08445101 -21.77734375 5.76171875 C-8.46860759 -1.46572054 -8.46860759 -1.46572054 0 0 Z " fill="#FFFCFA" transform="translate(181,192)"/>
<path d="M0 0 C6.93 0 13.86 0 21 0 C20.87625 3.073125 20.7525 6.14625 20.625 9.3125 C20.59100098 10.27712158 20.55700195 11.24174316 20.52197266 12.2355957 C20.46855713 13.38161255 20.46855713 13.38161255 20.4140625 14.55078125 C20.3826416 15.33106689 20.3512207 16.11135254 20.31884766 16.9152832 C20 19 20 19 18 22 C16.12060547 22.34057617 16.12060547 22.34057617 13.8671875 22.29296875 C13.14128418 22.28547607 12.41538086 22.2779834 11.66748047 22.27026367 C10.74596191 22.24295166 9.82444336 22.21563965 8.875 22.1875 C4.481875 22.0946875 4.481875 22.0946875 0 22 C0 14.74 0 7.48 0 0 Z " fill="#FFFBF9" transform="translate(168,168)"/>
<path d="M0 0 C0.74362793 0.01047363 1.48725586 0.02094727 2.25341797 0.03173828 C3.34227295 0.03923096 3.34227295 0.03923096 4.453125 0.046875 C5.83540283 0.07418701 5.83540283 0.07418701 7.24560547 0.10205078 C10.17435547 0.14330078 13.10310547 0.18455078 16.12060547 0.22705078 C16.12060547 7.15705078 16.12060547 14.08705078 16.12060547 21.22705078 C9.19060547 21.22705078 2.26060547 21.22705078 -4.87939453 21.22705078 C-4.75564453 18.13330078 -4.63189453 15.03955078 -4.50439453 11.85205078 C-4.47039551 10.8783252 -4.43639648 9.90459961 -4.40136719 8.90136719 C-4.36575684 8.1348584 -4.33014648 7.36834961 -4.29345703 6.57861328 C-4.26203613 5.79309082 -4.23061523 5.00756836 -4.19824219 4.19824219 C-3.75418706 1.45298867 -2.7992182 0.33817523 0 0 Z " fill="#FFFAF8" transform="translate(312.87939453125,307.77294921875)"/>
<path d="M0 0 C6.93 0 13.86 0 21 0 C21 6.93 21 13.86 21 21 C17.90625 20.87625 14.8125 20.7525 11.625 20.625 C10.65127441 20.59100098 9.67754883 20.55700195 8.67431641 20.52197266 C7.90780762 20.4863623 7.14129883 20.45075195 6.3515625 20.4140625 C5.56604004 20.3826416 4.78051758 20.3512207 3.97119141 20.31884766 C2 20 2 20 0 18 C-0.22705078 16.12060547 -0.22705078 16.12060547 -0.1953125 13.8671875 C-0.19031738 13.14128418 -0.18532227 12.41538086 -0.18017578 11.66748047 C-0.16196777 10.74596191 -0.14375977 9.82444336 -0.125 8.875 C-0.08375 5.94625 -0.0425 3.0175 0 0 Z " fill="#FFFBF9" transform="translate(308,168)"/>
<path d="M0 0 C2.95839355 -0.02689449 5.91654427 -0.04678741 8.875 -0.0625 C9.71675781 -0.07087891 10.55851563 -0.07925781 11.42578125 -0.08789062 C12.23144531 -0.09111328 13.03710938 -0.09433594 13.8671875 -0.09765625 C14.98262939 -0.10551147 14.98262939 -0.10551147 16.12060547 -0.11352539 C18 0 18 0 20 1 C20.33 7.6 20.66 14.2 21 21 C13.74 20.67 6.48 20.34 -1 20 C-1 9.875 -1 9.875 -0.5 4.9375 C-0.4071875 3.99777344 -0.314375 3.05804688 -0.21875 2.08984375 C-0.1465625 1.40019531 -0.074375 0.71054687 0 0 Z " fill="#FFFAF7" transform="translate(169,309)"/>
<path d="M0 0 C3.79247523 1.75592405 6.10578004 3.96459858 9 7 C9.928125 7.825 10.85625 8.65 11.8125 9.5 C14 12 14 12 14.41015625 14.3984375 C13.84975692 17.95297042 12.39294324 18.89842106 9.625 21.125 C6.85837395 23.38221554 4.99731426 25.0040286 3 28 C-1.62409693 27.164372 -3.77676317 24.3516499 -6.75 20.9375 C-7.25660156 20.36966797 -7.76320312 19.80183594 -8.28515625 19.21679688 C-9.53113136 17.8180135 -10.76660973 16.40989267 -12 15 C-10.38462556 11.10082032 -7.72075127 8.28706228 -4.875 5.25 C-4.40707031 4.74339844 -3.93914062 4.23679688 -3.45703125 3.71484375 C-2.30873459 2.47280859 -1.15491328 1.23588506 0 0 Z " fill="#FFFAF7" transform="translate(148,235)"/>
<path d="M0 0 C4.54074179 1.42358391 7.03973147 3.72132073 10.3125 7.125 C11.19550781 8.03507813 12.07851563 8.94515625 12.98828125 9.8828125 C13.98408203 10.93082031 13.98408203 10.93082031 15 12 C13.66189532 14.92710398 12.14313267 17.16754924 10 19.5625 C8.12253722 21.66995197 6.57778314 23.63332529 5 26 C2.3125 26.6875 2.3125 26.6875 -1 26 C-2.97371922 24.12192356 -4.62362471 22.11075452 -6.3203125 19.98046875 C-8.2700665 17.68157276 -10.29446163 16.31177618 -13 15 C-11.38989473 10.92623969 -8.46177729 8.23492931 -5.375 5.25 C-4.859375 4.74339844 -4.34375 4.23679688 -3.8125 3.71484375 C-2.54616661 2.47196098 -1.2736856 1.23534724 0 0 Z " fill="#FFF9F6" transform="translate(247,136)"/>
<path d="M0 0 C3 0 3 0 4.6484375 1.57421875 C5.21820313 2.27160156 5.78796875 2.96898437 6.375 3.6875 C8.47628281 6.22245182 10.54272568 8.56041758 13 10.75 C15 13 15 13 14.9609375 14.78125 C13.5397205 18.06275917 11.14322404 20.28988882 8.625 22.75 C8.13 23.25660156 7.635 23.76320313 7.125 24.28515625 C3.38011708 28 3.38011708 28 0 28 C-1.22079869 26.28428292 -2.4355066 24.56323997 -3.59375 22.8046875 C-5.08221004 20.68850346 -5.08221004 20.68850346 -8.3125 18.875 C-9.199375 18.25625 -10.08625 17.6375 -11 17 C-11.40625 14.6015625 -11.40625 14.6015625 -11 12 C-9.35546875 10.15625 -9.35546875 10.15625 -7.1875 8.5 C-3.95097173 5.89596229 -2.08116407 3.61465338 0 0 Z " fill="#FFF9F7" transform="translate(346,234)"/>
<path d="M0 0 C2.80279425 0.08243513 4.50385923 0.49476765 6.4921875 2.51953125 C7.50506221 3.76594443 8.51019207 5.01868793 9.5078125 6.27734375 C11.38564559 8.44520866 13.44779859 9.72389929 16 11 C14.37938967 14.99432781 11.60660827 17.79558321 8.625 20.8125 C7.90183594 21.5849707 7.90183594 21.5849707 7.1640625 22.37304688 C3.64131589 25.94844323 3.64131589 25.94844323 1.0078125 26.16015625 C-2.00455642 24.41954619 -4.33844611 22.09351973 -6.75 19.625 C-7.25660156 19.13 -7.76320312 18.635 -8.28515625 18.125 C-12 14.38011708 -12 14.38011708 -12 11 C-10.390625 9.5703125 -10.390625 9.5703125 -8.25 8.125 C-4.89084019 5.74261716 -2.39666327 3.39527296 0 0 Z " fill="#FFFAF7" transform="translate(247,335)"/>
<path d="M0 0 C3.12688787 1.41621379 5.53900915 3.12331976 8.125 5.375 C8.80820312 5.96023437 9.49140625 6.54546875 10.1953125 7.1484375 C12.00654755 9.00671761 12.98652635 10.6282627 14 13 C13.34 13 12.68 13 12 13 C12 13.66 12 14.32 12 15 C11.34 15 10.68 15 10 15 C10 15.66 10 16.32 10 17 C9.34 17 8.68 17 8 17 C8 17.66 8 18.32 8 19 C7.34 19 6.68 19 6 19 C5.34 20.32 4.68 21.64 4 23 C-1.34521615 21.49665796 -5.13508016 17.82879909 -9 14 C-9.33 13.34 -9.66 12.68 -10 12 C-3.84965831 3.55353075 -3.84965831 3.55353075 0 0 Z " fill="#FF9555" transform="translate(262,183)"/>
<path d="M0 0 C0.66 0.33 1.32 0.66 2 1 C1.67 1.99 1.34 2.98 1 4 C-1.50390625 5.16796875 -1.50390625 5.16796875 -4.5625 6.1875 C-5.57441406 6.53167969 -6.58632812 6.87585938 -7.62890625 7.23046875 C-8.41136719 7.48441406 -9.19382813 7.73835937 -10 8 C-10.33 7.01 -10.66 6.02 -11 5 C-9.93458984 4.58427734 -9.93458984 4.58427734 -8.84765625 4.16015625 C-7.46900391 3.61681641 -7.46900391 3.61681641 -6.0625 3.0625 C-5.14597656 2.70285156 -4.22945312 2.34320313 -3.28515625 1.97265625 C-1.07581467 1.2003782 -1.07581467 1.2003782 0 0 Z " fill="#FFCAAA" transform="translate(159,195)"/>
</svg>
